<?xml version="1.0" encoding="UTF-8"?>
<svg id="_レイヤー_2" data-name="レイヤー 2" xmlns="http://www.w3.org/2000/svg" viewBox="0 0 323.79 46.05">
  <defs>
    <style>
      .cls-1 {
        fill: #0b5b7c;
      }
    </style>
  </defs>
  <g id="_企業ロゴ_ブルー" data-name="企業ロゴ_ブルー">
    <g>
      <path class="cls-1" d="M10.08,33.92c0,7.2.94,8.42,6.91,8.42v2.09H0v-2.09c5.98,0,6.84-1.22,6.84-8.42V11.74C6.84,4.54,5.98,3.31,0,3.31V1.22h15.05l13.1,31.25L41.26,1.22h14.55v2.09c-6.05,0-6.91,1.22-6.91,8.42v22.18c0,7.2.86,8.42,6.91,8.42v2.09h-22.32v-2.09c5.98,0,6.91-1.22,6.91-8.42V11.3l-14.33,34.35h-1.58L10.08,11.3v22.61Z"/>
      <path class="cls-1" d="M67.72,36.87c-1.66,3.89-.58,5.47,5.4,5.47v2.09h-17.43v-2.09c4.97,0,6.62-1.22,8.86-6.34L80.18,0h1.51l15.7,36c2.02,4.61,3.02,6.34,8.79,6.34v2.09h-23.47v-2.09c6.34,0,7.06-1.66,5.4-5.47l-3.02-6.84h-14.4l-2.95,6.84ZM77.95,13.25l-5.83,13.54h11.59l-5.76-13.54Z"/>
      <path class="cls-1" d="M138.63,33.12c6.34,6.99,9.07,8.64,13.46,9.22v2.09h-15.63l-12.82-18.94h-2.09v8.42c0,7.2.94,8.42,6.91,8.42v2.09h-22.75v-2.09c5.98,0,6.84-1.22,6.84-8.42V11.74c0-7.2-.86-8.42-6.84-8.42V1.22h24.12c8.93,0,14.54,5.47,14.54,12.17,0,6.26-4.9,11.38-12.75,12.1l6.99,7.63ZM134.74,13.39c0-4.9-2.95-8.93-9.22-8.93h-3.96v17.79h3.96c6.26,0,9.22-3.96,9.22-8.86Z"/>
      <path class="cls-1" d="M152.06,44.43v-2.09c5.98,0,6.84-1.22,6.84-8.42V11.74c0-7.2-.86-8.42-6.84-8.42V1.22h22.75v2.09c-5.98,0-6.91,1.22-6.91,8.42v22.18c0,7.2.94,8.42,6.91,8.42v2.09h-22.75Z"/>
      <path class="cls-1" d="M218.76,11.74c0-7.2-.94-8.42-6.91-8.42V1.22h17.07v2.09c-6.05,0-6.91,1.22-6.91,8.42v33.91h-1.8l-29.81-35.57v23.83c0,7.2.94,8.42,6.91,8.42v2.09h-16.99v-2.09c5.98,0,6.84-1.22,6.84-8.42V11.74c0-7.2-.86-8.42-6.84-8.42V1.22h14.4l24.05,28.66V11.74Z"/>
      <g>
        <path class="cls-1" d="M258.08,25.95c0,2.97-2.41,5.38-5.38,5.38s-5.38-2.41-5.38-5.38c0-4.53,5.38-10.72,5.38-10.72,0,0,5.38,6.06,5.38,10.72Z"/>
        <path class="cls-1" d="M252.73,46.05c-13.25,0-24.05-10.3-24.05-22.83S239.48.4,252.73.4s23.98,10.3,23.98,22.83-10.8,22.83-23.98,22.83ZM252.73,3.85c-10.22,0-14.33,10.66-14.33,19.37s4.1,19.37,14.33,19.37,14.33-10.66,14.33-19.37-4.18-19.37-14.33-19.37Z"/>
      </g>
      <path class="cls-1" d="M285.33,36.87c-1.66,3.89-.58,5.47,5.4,5.47v2.09h-17.43v-2.09c4.97,0,6.62-1.22,8.86-6.34L297.79,0h1.51l15.7,36c2.02,4.61,3.02,6.34,8.79,6.34v2.09h-23.47v-2.09c6.34,0,7.06-1.66,5.4-5.47l-3.02-6.84h-14.4l-2.95,6.84ZM295.56,13.25l-5.83,13.54h11.59l-5.76-13.54Z"/>
      <path class="cls-1" d="M10.08,33.92c0,7.2.94,8.42,6.91,8.42v2.09H0v-2.09c5.98,0,6.84-1.22,6.84-8.42V11.74C6.84,4.54,5.98,3.31,0,3.31V1.22h15.05l13.1,31.25L41.26,1.22h14.55v2.09c-6.05,0-6.91,1.22-6.91,8.42v22.18c0,7.2.86,8.42,6.91,8.42v2.09h-22.32v-2.09c5.98,0,6.91-1.22,6.91-8.42V11.3l-14.33,34.35h-1.58L10.08,11.3v22.61Z"/>
      <path class="cls-1" d="M67.72,36.87c-1.66,3.89-.58,5.47,5.4,5.47v2.09h-17.43v-2.09c4.97,0,6.62-1.22,8.86-6.34L80.18,0h1.51l15.7,36c2.02,4.61,3.02,6.34,8.79,6.34v2.09h-23.47v-2.09c6.34,0,7.06-1.66,5.4-5.47l-3.02-6.84h-14.4l-2.95,6.84ZM77.95,13.25l-5.83,13.54h11.59l-5.76-13.54Z"/>
      <path class="cls-1" d="M138.63,33.12c6.34,6.99,9.07,8.64,13.46,9.22v2.09h-15.63l-12.82-18.94h-2.09v8.42c0,7.2.94,8.42,6.91,8.42v2.09h-22.75v-2.09c5.98,0,6.84-1.22,6.84-8.42V11.74c0-7.2-.86-8.42-6.84-8.42V1.22h24.12c8.93,0,14.54,5.47,14.54,12.17,0,6.26-4.9,11.38-12.75,12.1l6.99,7.63ZM134.74,13.39c0-4.9-2.95-8.93-9.22-8.93h-3.96v17.79h3.96c6.26,0,9.22-3.96,9.22-8.86Z"/>
      <path class="cls-1" d="M152.06,44.43v-2.09c5.98,0,6.84-1.22,6.84-8.42V11.74c0-7.2-.86-8.42-6.84-8.42V1.22h22.75v2.09c-5.98,0-6.91,1.22-6.91,8.42v22.18c0,7.2.94,8.42,6.91,8.42v2.09h-22.75Z"/>
      <path class="cls-1" d="M218.76,11.74c0-7.2-.94-8.42-6.91-8.42V1.22h17.07v2.09c-6.05,0-6.91,1.22-6.91,8.42v33.91h-1.8l-29.81-35.57v23.83c0,7.2.94,8.42,6.91,8.42v2.09h-16.99v-2.09c5.98,0,6.84-1.22,6.84-8.42V11.74c0-7.2-.86-8.42-6.84-8.42V1.22h14.4l24.05,28.66V11.74Z"/>
      <g>
        <path class="cls-1" d="M258.08,25.95c0,2.97-2.41,5.38-5.38,5.38s-5.38-2.41-5.38-5.38c0-4.53,5.38-10.72,5.38-10.72,0,0,5.38,6.06,5.38,10.72Z"/>
        <path class="cls-1" d="M252.73,46.05c-13.25,0-24.05-10.3-24.05-22.83S239.48.4,252.73.4s23.98,10.3,23.98,22.83-10.8,22.83-23.98,22.83ZM252.73,3.85c-10.22,0-14.33,10.66-14.33,19.37s4.1,19.37,14.33,19.37,14.33-10.66,14.33-19.37-4.18-19.37-14.33-19.37Z"/>
      </g>
      <path class="cls-1" d="M285.33,36.87c-1.66,3.89-.58,5.47,5.4,5.47v2.09h-17.43v-2.09c4.97,0,6.62-1.22,8.86-6.34L297.79,0h1.51l15.7,36c2.02,4.61,3.02,6.34,8.79,6.34v2.09h-23.47v-2.09c6.34,0,7.06-1.66,5.4-5.47l-3.02-6.84h-14.4l-2.95,6.84ZM295.56,13.25l-5.83,13.54h11.59l-5.76-13.54Z"/>
    </g>
  </g>
</svg>