<svg width="22" height="22" viewBox="0 0 22 22" fill="none" xmlns="http://www.w3.org/2000/svg">
<path d="M0.762695 0.762695C1.44611 0.0792779 2.55389 0.0792779 3.2373 0.762695L11 8.52539L18.5615 0.963867C19.2449 0.28045 20.3527 0.28045 21.0361 0.963867C21.7194 1.64729 21.7195 2.7551 21.0361 3.43848L13.4746 11L20.915 18.4404C21.5984 19.1239 21.5984 20.2316 20.915 20.915C20.2316 21.5984 19.1239 21.5984 18.4404 20.915L11 13.4746L3.3584 21.1162C2.67501 21.7995 1.56718 21.7995 0.883789 21.1162C0.200413 20.4328 0.200497 19.325 0.883789 18.6416L8.52539 11L0.762695 3.2373C0.0792778 2.55389 0.0792781 1.44611 0.762695 0.762695Z" fill="white" stroke="#757F90" stroke-width="0.5"/>
</svg>
